<svg id="visual" viewBox="0 0 900 600" width="900" height="600" xmlns="http://www.w3.org/2000/svg" xmlns:xlink="http://www.w3.org/1999/xlink" version="1.1"><rect x="0" y="0" width="900" height="600" fill="#92E1E2"></rect><path d="M0 374L37.5 368.3C75 362.7 150 351.3 225 333.7C300 316 375 292 450 290.7C525 289.3 600 310.7 675 314C750 317.3 825 302.7 862.5 295.3L900 288L900 601L862.5 601C825 601 750 601 675 601C600 601 525 601 450 601C375 601 300 601 225 601C150 601 75 601 37.5 601L0 601Z" fill="#72B2E4" stroke-linecap="round" stroke-linejoin="miter"></path></svg>